<svg width="952" height="396" viewBox="0 0 952 396" fill="none" xmlns="http://www.w3.org/2000/svg">
  <g opacity="0.35">
    <!-- Ersetze Kreise durch Tropfenformen -->
    <path d="M417 165C415.292 165 414 163.708 414 162C414 160.292 415.292 159 417 159C418.708 159 420 160.292 420 162C420 163.708 418.708 165 417 165Z" fill="#1c9aea"/>
    <path d="M515 118C513.5 118 512.5 116.5 512.5 115C512.5 113.5 513.5 112 515 112C516.5 112 517.5 113.5 517.5 115C517.5 116.5 516.5 118 515 118Z" opacity="0.5" fill="#1c9aea"/>
    <path d="M423 285C421.708 285 420.5 283.792 420.5 282.5C420.5 281.208 421.708 280 423 280C424.292 280 425.5 281.208 425.5 282.5C425.5 283.792 424.292 285 423 285Z" opacity="0.5" fill="#1c9aea"/>
    <path d="M366 398C364.5 398 363.5 396.5 363.5 395C363.5 393.5 364.5 392 366 392C367.5 392 368.5 393.5 368.5 395C368.5 396.5 367.5 398 366 398Z" opacity="0.3" fill="#1c9aea"/>
    <path d="M265 330C263.792 330 263 329.208 263 328C263 326.792 263.792 326 265 326C266.208 326 267 326.792 267 328C267 329.208 266.208 330 265 330Z" fill="#1c9aea"/>
    <path d="M362 213C360.5 213 359.5 211.5 359.5 210C359.5 208.5 360.5 207 362 207C363.5 207 364.5 208.5 364.5 210C364.5 211.5 363.5 213 362 213Z" opacity="0.2" fill="#1c9aea"/>
    <path d="M548 215C546.5 215 545.5 213.5 545.5 212C545.5 210.5 546.5 209 548 209C549.5 209 550.5 210.5 550.5 212C550.5 213.5 549.5 215 548 215Z" opacity="0.3" fill="#1c9aea"/>
    <path d="M607 285C605.5 285 604.5 283.5 604.5 282C604.5 280.5 605.5 279 607 279C608.5 279 609.5 280.5 609.5 282C609.5 283.5 608.5 285 607 285Z" opacity="0.2" fill="#1c9aea"/>
    <path d="M789 285C787.5 285 786.5 283.5 786.5 282C786.5 280.5 787.5 279 789 279C790.5 279 791.5 280.5 791.5 282C791.5 283.5 790.5 285 789 285Z" opacity="0.21" fill="#1c9aea"/>
    <path d="M362 68C360.5 68 359.5 66.5 359.5 65C359.5 63.5 360.5 62 362 62C363.5 62 364.5 63.5 364.5 65C364.5 66.5 363.5 68 362 68Z" fill="#1c9aea"/>
    <path d="M192 136C190.5 136 189.5 134.5 189.5 133C189.5 131.5 190.5 130 192 130C193.5 130 194.5 131.5 194.5 133C194.5 134.5 193.5 136 192 136Z" opacity="0.3" fill="#1c9aea"/>
    <path d="M743 6C741.5 6 740.5 4.5 740.5 3C740.5 1.5 741.5 0 743 0C744.5 0 745.5 1.5 745.5 3C745.5 4.5 744.5 6 743 6Z" fill="#1c9aea"/>
  </g>
  <path d="M834 150C827.373 150 822 144.627 822 138C822 131.373 827.373 126 834 126C840.627 126 846 131.373 846 138C846 144.627 840.627 150 834 150Z" fill="url(#paint0_linear_701_17365)"/>
  <path d="M4 206C1.79086 206 4.76837e-07 204.209 4.76837e-07 202C4.76837e-07 199.791 1.79086 198 4 198C6.20914 198 8 199.791 8 202C8 204.209 6.20914 206 4 206Z" fill="url(#paint1_linear_701_17365)"/>
  <path d="M948 206C945.791 206 944 204.209 944 202C944 199.791 945.791 198 948 198C950.209 198 952 199.791 952 202C952 204.209 950.209 206 948 206Z" fill="url(#paint2_linear_701_17365)"/>
  <path d="M154 326C149.582 326 146 322.418 146 318C146 313.582 149.582 310 154 310C158.418 310 162 313.582 162 318C162 322.418 158.418 326 154 326Z" fill="url(#paint3_linear_701_17365)"/>
  <defs>
    <linearGradient id="paint0_linear_701_17365" x1="834" y1="126" x2="834" y2="150" gradientUnits="userSpaceOnUse">
      <stop stop-color="#1c9aea"/>
      <stop offset="1" stop-color="#1A1A32"/>
    </linearGradient>
    <linearGradient id="paint1_linear_701_17365" x1="4" y1="198" x2="4" y2="206" gradientUnits="userSpaceOnUse">
      <stop stop-color="#1c9aea"/>
      <stop offset="1" stop-color="#1A1A32"/>
    </linearGradient>
    <linearGradient id="paint2_linear_701_17365" x1="948" y1="198" x2="948" y2="206" gradientUnits="userSpaceOnUse">
      <stop stop-color="#1c9aea"/>
      <stop offset="1" stop-color="#1A1A32"/>
    </linearGradient>
    <linearGradient id="paint3_linear_701_17365" x1="154" y1="310" x2="154" y2="326" gradientUnits="userSpaceOnUse">
      <stop stop-color="#1c9aea"/>
      <stop offset="1" stop-color="#1A1A32"/>
    </linearGradient>
  </defs>
</svg>
