<svg width="24" height="24" viewBox="0 0 24 24" fill="none" xmlns="http://www.w3.org/2000/svg">
  <path d="M15.8333 2.00691C13.8738 0.875566 11.1262 0.875566 9.16667 2.00691L4.00769 4.9277C2.04817 6.05905 0.941544 8.14986 0.941544 10.4125V15.5875C0.941544 17.8501 2.04817 19.9409 4.00769 21.0723L9.16667 23.9931C11.1262 25.1244 13.8738 25.1244 15.8333 23.9931L20.9923 21.0723C22.9518 19.9409 24.0585 17.8501 24.0585 15.5875V10.4125C24.0585 8.14986 22.9518 6.05905 20.9923 4.9277L15.8333 2.00691Z" fill="#00BFFF" stroke="#87CEEB" stroke-width="2"/>
  <g style="mix-blend-mode:overlay">
    <path fill-rule="evenodd" clip-rule="evenodd" d="M12 7.66667C10.342 7.66667 9 9.00866 9 10.6667C9 12.3247 10.342 13.6667 12 13.6667C13.658 13.6667 15 12.3247 15 10.6667C15 9.00866 13.658 7.66667 12 7.66667ZM12 6C9.79086 6 8 7.79086 8 10C8 12.2091 9.79086 14 12 14C14.2091 14 16 12.2091 16 10C16 7.79086 14.2091 6 12 6ZM9.33333 15.6667C8.04467 15.6667 7 16.7114 7 18C7 19.2886 8.04467 20.3333 9.33333 20.3333H14.6667C15.9553 20.3333 17 19.2886 17 18C17 16.7114 15.9553 15.6667 14.6667 15.6667H9.33333ZM9.33333 14.6667H14.6667C16.507 14.6667 18 16.1597 18 18C18 19.8403 16.507 21.3333 14.6667 21.3333H9.33333C7.49295 21.3333 6 19.8403 6 18C6 16.1597 7.49295 14.6667 9.33333 14.6667Z" fill="black"/>
  </g>
</svg>
